%TF.GenerationSoftware,KiCad,Pcbnew,7.0.9-7.0.9~ubuntu22.04.1*%
%TF.CreationDate,2023-12-14T14:55:04+01:00*%
%TF.ProjectId,odooPad,6f646f6f-5061-4642-9e6b-696361645f70,rev?*%
%TF.SameCoordinates,Original*%
%TF.FileFunction,Soldermask,Top*%
%TF.FilePolarity,Negative*%
%FSLAX46Y46*%
G04 Gerber Fmt 4.6, Leading zero omitted, Abs format (unit mm)*
G04 Created by KiCad (PCBNEW 7.0.9-7.0.9~ubuntu22.04.1) date 2023-12-14 14:55:04*
%MOMM*%
%LPD*%
G01*
G04 APERTURE LIST*
%ADD10R,1.700000X1.700000*%
%ADD11O,1.700000X1.700000*%
%ADD12C,1.700000*%
%ADD13C,4.000000*%
%ADD14C,2.200000*%
G04 APERTURE END LIST*
D10*
%TO.C,Connector1*%
X146050000Y-34560000D03*
D11*
X146050000Y-37100000D03*
X143510000Y-34560000D03*
X143510000Y-37100000D03*
X140970000Y-34560000D03*
X140970000Y-37100000D03*
X138430000Y-34560000D03*
X138430000Y-37100000D03*
%TD*%
D12*
%TO.C,SW12*%
X162560000Y-129540000D03*
D13*
X157480000Y-129540000D03*
D12*
X152400000Y-129540000D03*
D14*
X154940000Y-134620000D03*
X161290000Y-132080000D03*
%TD*%
D12*
%TO.C,SW13*%
X187960000Y-50800000D03*
D13*
X182880000Y-50800000D03*
D12*
X177800000Y-50800000D03*
D14*
X180340000Y-55880000D03*
X186690000Y-53340000D03*
%TD*%
D12*
%TO.C,SW6*%
X137160000Y-76200000D03*
D13*
X132080000Y-76200000D03*
D12*
X127000000Y-76200000D03*
D14*
X129540000Y-81280000D03*
X135890000Y-78740000D03*
%TD*%
%TO.C,SW1*%
X110490000Y-53340000D03*
X104140000Y-55880000D03*
D12*
X101600000Y-50800000D03*
D13*
X106680000Y-50800000D03*
D12*
X111760000Y-50800000D03*
%TD*%
%TO.C,SW15*%
X187960000Y-104140000D03*
D13*
X182880000Y-104140000D03*
D12*
X177800000Y-104140000D03*
D14*
X180340000Y-109220000D03*
X186690000Y-106680000D03*
%TD*%
D12*
%TO.C,SW16*%
X187960000Y-129540000D03*
D13*
X182880000Y-129540000D03*
D12*
X177800000Y-129540000D03*
D14*
X180340000Y-134620000D03*
X186690000Y-132080000D03*
%TD*%
D12*
%TO.C,SW9*%
X162560000Y-50800000D03*
D13*
X157480000Y-50800000D03*
D12*
X152400000Y-50800000D03*
D14*
X154940000Y-55880000D03*
X161290000Y-53340000D03*
%TD*%
D12*
%TO.C,SW8*%
X137160000Y-129540000D03*
D13*
X132080000Y-129540000D03*
D12*
X127000000Y-129540000D03*
D14*
X129540000Y-134620000D03*
X135890000Y-132080000D03*
%TD*%
D12*
%TO.C,SW5*%
X137160000Y-50800000D03*
D13*
X132080000Y-50800000D03*
D12*
X127000000Y-50800000D03*
D14*
X129540000Y-55880000D03*
X135890000Y-53340000D03*
%TD*%
D12*
%TO.C,SW7*%
X137160000Y-104140000D03*
D13*
X132080000Y-104140000D03*
D12*
X127000000Y-104140000D03*
D14*
X129540000Y-109220000D03*
X135890000Y-106680000D03*
%TD*%
D12*
%TO.C,SW14*%
X187960000Y-76200000D03*
D13*
X182880000Y-76200000D03*
D12*
X177800000Y-76200000D03*
D14*
X180340000Y-81280000D03*
X186690000Y-78740000D03*
%TD*%
D12*
%TO.C,SW3*%
X111760000Y-104140000D03*
D13*
X106680000Y-104140000D03*
D12*
X101600000Y-104140000D03*
D14*
X104140000Y-109220000D03*
X110490000Y-106680000D03*
%TD*%
D12*
%TO.C,SW11*%
X162560000Y-104140000D03*
D13*
X157480000Y-104140000D03*
D12*
X152400000Y-104140000D03*
D14*
X154940000Y-109220000D03*
X161290000Y-106680000D03*
%TD*%
D12*
%TO.C,SW4*%
X111760000Y-129540000D03*
D13*
X106680000Y-129540000D03*
D12*
X101600000Y-129540000D03*
D14*
X104140000Y-134620000D03*
X110490000Y-132080000D03*
%TD*%
D12*
%TO.C,SW10*%
X162560000Y-76200000D03*
D13*
X157480000Y-76200000D03*
D12*
X152400000Y-76200000D03*
D14*
X154940000Y-81280000D03*
X161290000Y-78740000D03*
%TD*%
D12*
%TO.C,SW2*%
X111760000Y-76200000D03*
D13*
X106680000Y-76200000D03*
D12*
X101600000Y-76200000D03*
D14*
X104140000Y-81280000D03*
X110490000Y-78740000D03*
%TD*%
M02*
