M48
; DRILL file {KiCad 7.0.9-7.0.9~ubuntu22.04.1} date Do 14 Dez 2023 14:57:34
; FORMAT={-:-/ absolute / inch / decimal}
; #@! TF.CreationDate,2023-12-14T14:57:34+01:00
; #@! TF.GenerationSoftware,Kicad,Pcbnew,7.0.9-7.0.9~ubuntu22.04.1
; #@! TF.FileFunction,NonPlated,1,2,NPTH
FMAT,2
INCH
; #@! TA.AperFunction,NonPlated,NPTH,ComponentDrill
T1C0.0669
; #@! TA.AperFunction,NonPlated,NPTH,ComponentDrill
T2C0.1575
%
G90
G05
T1
X4.0Y-2.0
X4.0Y-3.0
X4.0Y-4.1
X4.0Y-5.1
X4.4Y-2.0
X4.4Y-3.0
X4.4Y-4.1
X4.4Y-5.1
X5.0Y-2.0
X5.0Y-3.0
X5.0Y-4.1
X5.0Y-5.1
X5.4Y-2.0
X5.4Y-3.0
X5.4Y-4.1
X5.4Y-5.1
X6.0Y-2.0
X6.0Y-3.0
X6.0Y-4.1
X6.0Y-5.1
X6.4Y-2.0
X6.4Y-3.0
X6.4Y-4.1
X6.4Y-5.1
X7.0Y-2.0
X7.0Y-3.0
X7.0Y-4.1
X7.0Y-5.1
X7.4Y-2.0
X7.4Y-3.0
X7.4Y-4.1
X7.4Y-5.1
T2
X4.2Y-2.0
X4.2Y-3.0
X4.2Y-4.1
X4.2Y-5.1
X5.2Y-2.0
X5.2Y-3.0
X5.2Y-4.1
X5.2Y-5.1
X6.2Y-2.0
X6.2Y-3.0
X6.2Y-4.1
X6.2Y-5.1
X7.2Y-2.0
X7.2Y-3.0
X7.2Y-4.1
X7.2Y-5.1
T0
M30
