%TF.GenerationSoftware,KiCad,Pcbnew,7.0.9-7.0.9~ubuntu22.04.1*%
%TF.CreationDate,2023-12-14T14:55:03+01:00*%
%TF.ProjectId,odooPad,6f646f6f-5061-4642-9e6b-696361645f70,rev?*%
%TF.SameCoordinates,Original*%
%TF.FileFunction,Copper,L2,Bot*%
%TF.FilePolarity,Positive*%
%FSLAX46Y46*%
G04 Gerber Fmt 4.6, Leading zero omitted, Abs format (unit mm)*
G04 Created by KiCad (PCBNEW 7.0.9-7.0.9~ubuntu22.04.1) date 2023-12-14 14:55:03*
%MOMM*%
%LPD*%
G01*
G04 APERTURE LIST*
G04 Aperture macros list*
%AMRoundRect*
0 Rectangle with rounded corners*
0 $1 Rounding radius*
0 $2 $3 $4 $5 $6 $7 $8 $9 X,Y pos of 4 corners*
0 Add a 4 corners polygon primitive as box body*
4,1,4,$2,$3,$4,$5,$6,$7,$8,$9,$2,$3,0*
0 Add four circle primitives for the rounded corners*
1,1,$1+$1,$2,$3*
1,1,$1+$1,$4,$5*
1,1,$1+$1,$6,$7*
1,1,$1+$1,$8,$9*
0 Add four rect primitives between the rounded corners*
20,1,$1+$1,$2,$3,$4,$5,0*
20,1,$1+$1,$4,$5,$6,$7,0*
20,1,$1+$1,$6,$7,$8,$9,0*
20,1,$1+$1,$8,$9,$2,$3,0*%
G04 Aperture macros list end*
%TA.AperFunction,ComponentPad*%
%ADD10R,1.700000X1.700000*%
%TD*%
%TA.AperFunction,ComponentPad*%
%ADD11O,1.700000X1.700000*%
%TD*%
%TA.AperFunction,ComponentPad*%
%ADD12C,2.200000*%
%TD*%
%TA.AperFunction,SMDPad,CuDef*%
%ADD13RoundRect,0.225000X-0.375000X0.225000X-0.375000X-0.225000X0.375000X-0.225000X0.375000X0.225000X0*%
%TD*%
%TA.AperFunction,Conductor*%
%ADD14C,0.250000*%
%TD*%
G04 APERTURE END LIST*
D10*
%TO.P,Connector1,1,Pin_1*%
%TO.N,Net-(Connector1-Pin_1)*%
X146050000Y-34560000D03*
D11*
%TO.P,Connector1,2,Pin_2*%
%TO.N,Net-(Connector1-Pin_2)*%
X146050000Y-37100000D03*
%TO.P,Connector1,3,Pin_3*%
%TO.N,Net-(Connector1-Pin_3)*%
X143510000Y-34560000D03*
%TO.P,Connector1,4,Pin_4*%
%TO.N,Net-(Connector1-Pin_4)*%
X143510000Y-37100000D03*
%TO.P,Connector1,5,Pin_5*%
%TO.N,Net-(Connector1-Pin_5)*%
X140970000Y-34560000D03*
%TO.P,Connector1,6,Pin_6*%
%TO.N,Net-(Connector1-Pin_6)*%
X140970000Y-37100000D03*
%TO.P,Connector1,7,Pin_7*%
%TO.N,Net-(Connector1-Pin_7)*%
X138430000Y-34560000D03*
%TO.P,Connector1,8,Pin_8*%
%TO.N,Net-(Connector1-Pin_8)*%
X138430000Y-37100000D03*
%TD*%
D12*
%TO.P,SW12,1,1*%
%TO.N,Net-(Connector1-Pin_4)*%
X154940000Y-134620000D03*
%TO.P,SW12,2,2*%
%TO.N,Net-(D12-A)*%
X161290000Y-132080000D03*
%TD*%
%TO.P,SW13,1,1*%
%TO.N,Net-(Connector1-Pin_2)*%
X180340000Y-55880000D03*
%TO.P,SW13,2,2*%
%TO.N,Net-(D13-A)*%
X186690000Y-53340000D03*
%TD*%
%TO.P,SW6,1,1*%
%TO.N,Net-(Connector1-Pin_6)*%
X129540000Y-81280000D03*
%TO.P,SW6,2,2*%
%TO.N,Net-(D6-A)*%
X135890000Y-78740000D03*
%TD*%
%TO.P,SW1,2,2*%
%TO.N,Net-(D1-A)*%
X110490000Y-53340000D03*
%TO.P,SW1,1,1*%
%TO.N,Net-(Connector1-Pin_8)*%
X104140000Y-55880000D03*
%TD*%
%TO.P,SW15,1,1*%
%TO.N,Net-(Connector1-Pin_2)*%
X180340000Y-109220000D03*
%TO.P,SW15,2,2*%
%TO.N,Net-(D15-A)*%
X186690000Y-106680000D03*
%TD*%
%TO.P,SW16,1,1*%
%TO.N,Net-(Connector1-Pin_2)*%
X180340000Y-134620000D03*
%TO.P,SW16,2,2*%
%TO.N,Net-(D16-A)*%
X186690000Y-132080000D03*
%TD*%
%TO.P,SW9,1,1*%
%TO.N,Net-(Connector1-Pin_4)*%
X154940000Y-55880000D03*
%TO.P,SW9,2,2*%
%TO.N,Net-(D9-A)*%
X161290000Y-53340000D03*
%TD*%
%TO.P,SW8,1,1*%
%TO.N,Net-(Connector1-Pin_6)*%
X129540000Y-134620000D03*
%TO.P,SW8,2,2*%
%TO.N,Net-(D8-A)*%
X135890000Y-132080000D03*
%TD*%
%TO.P,SW5,1,1*%
%TO.N,Net-(Connector1-Pin_6)*%
X129540000Y-55880000D03*
%TO.P,SW5,2,2*%
%TO.N,Net-(D5-A)*%
X135890000Y-53340000D03*
%TD*%
%TO.P,SW7,1,1*%
%TO.N,Net-(Connector1-Pin_6)*%
X129540000Y-109220000D03*
%TO.P,SW7,2,2*%
%TO.N,Net-(D7-A)*%
X135890000Y-106680000D03*
%TD*%
%TO.P,SW14,1,1*%
%TO.N,Net-(Connector1-Pin_2)*%
X180340000Y-81280000D03*
%TO.P,SW14,2,2*%
%TO.N,Net-(D14-A)*%
X186690000Y-78740000D03*
%TD*%
%TO.P,SW3,1,1*%
%TO.N,Net-(Connector1-Pin_8)*%
X104140000Y-109220000D03*
%TO.P,SW3,2,2*%
%TO.N,Net-(D3-A)*%
X110490000Y-106680000D03*
%TD*%
%TO.P,SW11,1,1*%
%TO.N,Net-(Connector1-Pin_4)*%
X154940000Y-109220000D03*
%TO.P,SW11,2,2*%
%TO.N,Net-(D11-A)*%
X161290000Y-106680000D03*
%TD*%
%TO.P,SW4,1,1*%
%TO.N,Net-(Connector1-Pin_8)*%
X104140000Y-134620000D03*
%TO.P,SW4,2,2*%
%TO.N,Net-(D4-A)*%
X110490000Y-132080000D03*
%TD*%
%TO.P,SW10,1,1*%
%TO.N,Net-(Connector1-Pin_4)*%
X154940000Y-81280000D03*
%TO.P,SW10,2,2*%
%TO.N,Net-(D10-A)*%
X161290000Y-78740000D03*
%TD*%
%TO.P,SW2,1,1*%
%TO.N,Net-(Connector1-Pin_8)*%
X104140000Y-81280000D03*
%TO.P,SW2,2,2*%
%TO.N,Net-(D2-A)*%
X110490000Y-78740000D03*
%TD*%
D13*
%TO.P,D9,1,K*%
%TO.N,Net-(Connector1-Pin_1)*%
X144780000Y-49150000D03*
%TO.P,D9,2,A*%
%TO.N,Net-(D9-A)*%
X144780000Y-52450000D03*
%TD*%
%TO.P,D6,1,K*%
%TO.N,Net-(Connector1-Pin_3)*%
X119380000Y-74550000D03*
%TO.P,D6,2,A*%
%TO.N,Net-(D6-A)*%
X119380000Y-77850000D03*
%TD*%
%TO.P,D3,1,K*%
%TO.N,Net-(Connector1-Pin_5)*%
X93980000Y-102490000D03*
%TO.P,D3,2,A*%
%TO.N,Net-(D3-A)*%
X93980000Y-105790000D03*
%TD*%
%TO.P,D15,1,K*%
%TO.N,Net-(Connector1-Pin_5)*%
X170180000Y-102870000D03*
%TO.P,D15,2,A*%
%TO.N,Net-(D15-A)*%
X170180000Y-106170000D03*
%TD*%
%TO.P,D5,2,A*%
%TO.N,Net-(D5-A)*%
X119380000Y-52450000D03*
%TO.P,D5,1,K*%
%TO.N,Net-(Connector1-Pin_1)*%
X119380000Y-49150000D03*
%TD*%
%TO.P,D10,1,K*%
%TO.N,Net-(Connector1-Pin_3)*%
X144780000Y-74550000D03*
%TO.P,D10,2,A*%
%TO.N,Net-(D10-A)*%
X144780000Y-77850000D03*
%TD*%
%TO.P,D16,1,K*%
%TO.N,Net-(Connector1-Pin_7)*%
X170180000Y-127510000D03*
%TO.P,D16,2,A*%
%TO.N,Net-(D16-A)*%
X170180000Y-130810000D03*
%TD*%
%TO.P,D8,1,K*%
%TO.N,Net-(Connector1-Pin_7)*%
X119000000Y-127890000D03*
%TO.P,D8,2,A*%
%TO.N,Net-(D8-A)*%
X119000000Y-131190000D03*
%TD*%
%TO.P,D11,1,K*%
%TO.N,Net-(Connector1-Pin_5)*%
X144780000Y-102490000D03*
%TO.P,D11,2,A*%
%TO.N,Net-(D11-A)*%
X144780000Y-105790000D03*
%TD*%
%TO.P,D1,2,A*%
%TO.N,Net-(D1-A)*%
X93980000Y-52450000D03*
%TO.P,D1,1,K*%
%TO.N,Net-(Connector1-Pin_1)*%
X93980000Y-49150000D03*
%TD*%
%TO.P,D12,1,K*%
%TO.N,Net-(Connector1-Pin_7)*%
X144780000Y-127510000D03*
%TO.P,D12,2,A*%
%TO.N,Net-(D12-A)*%
X144780000Y-130810000D03*
%TD*%
%TO.P,D13,1,K*%
%TO.N,Net-(Connector1-Pin_1)*%
X170180000Y-49530000D03*
%TO.P,D13,2,A*%
%TO.N,Net-(D13-A)*%
X170180000Y-52830000D03*
%TD*%
%TO.P,D7,1,K*%
%TO.N,Net-(Connector1-Pin_5)*%
X119380000Y-102110000D03*
%TO.P,D7,2,A*%
%TO.N,Net-(D7-A)*%
X119380000Y-105410000D03*
%TD*%
%TO.P,D4,1,K*%
%TO.N,Net-(Connector1-Pin_7)*%
X93980000Y-127890000D03*
%TO.P,D4,2,A*%
%TO.N,Net-(D4-A)*%
X93980000Y-131190000D03*
%TD*%
%TO.P,D14,1,K*%
%TO.N,Net-(Connector1-Pin_3)*%
X170180000Y-74550000D03*
%TO.P,D14,2,A*%
%TO.N,Net-(D14-A)*%
X170180000Y-77850000D03*
%TD*%
%TO.P,D2,1,K*%
%TO.N,Net-(Connector1-Pin_3)*%
X93980000Y-74550000D03*
%TO.P,D2,2,A*%
%TO.N,Net-(D2-A)*%
X93980000Y-77850000D03*
%TD*%
D14*
%TO.N,Net-(Connector1-Pin_1)*%
X170180000Y-49530000D02*
X170180000Y-34290000D01*
X170180000Y-34290000D02*
X168910000Y-33020000D01*
X146050000Y-33020000D02*
X146050000Y-34560000D01*
X168910000Y-33020000D02*
X146050000Y-33020000D01*
%TO.N,Net-(Connector1-Pin_3)*%
X170180000Y-74550000D02*
X170180000Y-64770000D01*
X170180000Y-64770000D02*
X171450000Y-63500000D01*
X191770000Y-31750000D02*
X144780000Y-31750000D01*
X171450000Y-63500000D02*
X191770000Y-63500000D01*
X191770000Y-63500000D02*
X193040000Y-62230000D01*
X193040000Y-62230000D02*
X193040000Y-33020000D01*
X193040000Y-33020000D02*
X191770000Y-31750000D01*
X144780000Y-31750000D02*
X143510000Y-33020000D01*
X143510000Y-33020000D02*
X143510000Y-34560000D01*
%TO.N,Net-(Connector1-Pin_5)*%
X170180000Y-102870000D02*
X170180000Y-93980000D01*
X170180000Y-93980000D02*
X172720000Y-91440000D01*
X172720000Y-91440000D02*
X193040000Y-91440000D01*
X193040000Y-91440000D02*
X194310000Y-90170000D01*
X194310000Y-90170000D02*
X194310000Y-33020000D01*
X194310000Y-33020000D02*
X191770000Y-30480000D01*
X191770000Y-30480000D02*
X142240000Y-30480000D01*
X142240000Y-30480000D02*
X140970000Y-31750000D01*
X140970000Y-31750000D02*
X140970000Y-34560000D01*
%TO.N,Net-(Connector1-Pin_7)*%
X170180000Y-127510000D02*
X170180000Y-120650000D01*
X194310000Y-118110000D02*
X195580000Y-116840000D01*
X170180000Y-120650000D02*
X172720000Y-118110000D01*
X172720000Y-118110000D02*
X194310000Y-118110000D01*
X195580000Y-116840000D02*
X195580000Y-33020000D01*
X140970000Y-29210000D02*
X138430000Y-31750000D01*
X195580000Y-33020000D02*
X191770000Y-29210000D01*
X191770000Y-29210000D02*
X140970000Y-29210000D01*
X138430000Y-31750000D02*
X138430000Y-34560000D01*
%TO.N,Net-(D1-A)*%
X93980000Y-52450000D02*
X94705000Y-53175000D01*
X103975000Y-53175000D02*
X105410000Y-54610000D01*
X105410000Y-54610000D02*
X109220000Y-54610000D01*
X109220000Y-54610000D02*
X110490000Y-53340000D01*
X94705000Y-53175000D02*
X103975000Y-53175000D01*
%TO.N,Net-(D2-A)*%
X104140000Y-78740000D02*
X94870000Y-78740000D01*
X109220000Y-80010000D02*
X105410000Y-80010000D01*
X105410000Y-80010000D02*
X104140000Y-78740000D01*
X94870000Y-78740000D02*
X93980000Y-77850000D01*
X110490000Y-78740000D02*
X109220000Y-80010000D01*
%TO.N,Net-(D3-A)*%
X103250000Y-105790000D02*
X93980000Y-105790000D01*
X109220000Y-107950000D02*
X105410000Y-107950000D01*
X110490000Y-106680000D02*
X109220000Y-107950000D01*
X105410000Y-107950000D02*
X103250000Y-105790000D01*
%TO.N,Net-(D4-A)*%
X109220000Y-133350000D02*
X105410000Y-133350000D01*
X110490000Y-132080000D02*
X109220000Y-133350000D01*
X94870000Y-132080000D02*
X93980000Y-131190000D01*
X104140000Y-132080000D02*
X94870000Y-132080000D01*
X105410000Y-133350000D02*
X104140000Y-132080000D01*
%TO.N,Net-(D5-A)*%
X120650000Y-53340000D02*
X129540000Y-53340000D01*
X134620000Y-54610000D02*
X135890000Y-53340000D01*
X119380000Y-52450000D02*
X119760000Y-52450000D01*
X129540000Y-53340000D02*
X130810000Y-54610000D01*
X130810000Y-54610000D02*
X134620000Y-54610000D01*
X119760000Y-52450000D02*
X120650000Y-53340000D01*
%TO.N,Net-(D6-A)*%
X120270000Y-78740000D02*
X119380000Y-77850000D01*
X130810000Y-80010000D02*
X129540000Y-78740000D01*
X135890000Y-78740000D02*
X134620000Y-80010000D01*
X129540000Y-78740000D02*
X120270000Y-78740000D01*
X134620000Y-80010000D02*
X130810000Y-80010000D01*
%TO.N,Net-(D7-A)*%
X120650000Y-106680000D02*
X119380000Y-105410000D01*
X134620000Y-107950000D02*
X130810000Y-107950000D01*
X130810000Y-107950000D02*
X129540000Y-106680000D01*
X135890000Y-106680000D02*
X134620000Y-107950000D01*
X129540000Y-106680000D02*
X120650000Y-106680000D01*
%TO.N,Net-(D8-A)*%
X130810000Y-133350000D02*
X129540000Y-132080000D01*
X134620000Y-133350000D02*
X130810000Y-133350000D01*
X120650000Y-132080000D02*
X119760000Y-131190000D01*
X119760000Y-131190000D02*
X119000000Y-131190000D01*
X135890000Y-132080000D02*
X134620000Y-133350000D01*
X129540000Y-132080000D02*
X120650000Y-132080000D01*
%TO.N,Net-(D9-A)*%
X145670000Y-53340000D02*
X154940000Y-53340000D01*
X154940000Y-53340000D02*
X156210000Y-54610000D01*
X144780000Y-52450000D02*
X145670000Y-53340000D01*
X156210000Y-54610000D02*
X160020000Y-54610000D01*
X160020000Y-54610000D02*
X161290000Y-53340000D01*
%TO.N,Net-(D10-A)*%
X154940000Y-78740000D02*
X145670000Y-78740000D01*
X156210000Y-80010000D02*
X154940000Y-78740000D01*
X160020000Y-80010000D02*
X156210000Y-80010000D01*
X145670000Y-78740000D02*
X144780000Y-77850000D01*
X161290000Y-78740000D02*
X160020000Y-80010000D01*
%TO.N,Net-(D11-A)*%
X156210000Y-107950000D02*
X154940000Y-106680000D01*
X154940000Y-106680000D02*
X145670000Y-106680000D01*
X160020000Y-107950000D02*
X156210000Y-107950000D01*
X145670000Y-106680000D02*
X144780000Y-105790000D01*
X161290000Y-106680000D02*
X160020000Y-107950000D01*
%TO.N,Net-(D12-A)*%
X146050000Y-132080000D02*
X144780000Y-130810000D01*
X160020000Y-133350000D02*
X156210000Y-133350000D01*
X156210000Y-133350000D02*
X154940000Y-132080000D01*
X154940000Y-132080000D02*
X146050000Y-132080000D01*
X161290000Y-132080000D02*
X160020000Y-133350000D01*
%TO.N,Net-(D13-A)*%
X181610000Y-54610000D02*
X179830000Y-52830000D01*
X185420000Y-54610000D02*
X181610000Y-54610000D01*
X186690000Y-53340000D02*
X185420000Y-54610000D01*
X179830000Y-52830000D02*
X170180000Y-52830000D01*
%TO.N,Net-(D14-A)*%
X180340000Y-78740000D02*
X171070000Y-78740000D01*
X186690000Y-78740000D02*
X185420000Y-80010000D01*
X181610000Y-80010000D02*
X180340000Y-78740000D01*
X171070000Y-78740000D02*
X170180000Y-77850000D01*
X185420000Y-80010000D02*
X181610000Y-80010000D01*
%TO.N,Net-(D15-A)*%
X185420000Y-107950000D02*
X181610000Y-107950000D01*
X186690000Y-106680000D02*
X185420000Y-107950000D01*
X180340000Y-106680000D02*
X171450000Y-106680000D01*
X170940000Y-106170000D02*
X170180000Y-106170000D01*
X171450000Y-106680000D02*
X170940000Y-106170000D01*
X181610000Y-107950000D02*
X180340000Y-106680000D01*
%TO.N,Net-(D16-A)*%
X186690000Y-132080000D02*
X185420000Y-133350000D01*
X180340000Y-132080000D02*
X171450000Y-132080000D01*
X181610000Y-133350000D02*
X180340000Y-132080000D01*
X185420000Y-133350000D02*
X181610000Y-133350000D01*
X171450000Y-132080000D02*
X170180000Y-130810000D01*
%TO.N,Net-(Connector1-Pin_7)*%
X169420000Y-127510000D02*
X170180000Y-127510000D01*
X144020000Y-127510000D02*
X144780000Y-127510000D01*
X93980000Y-127890000D02*
X93980000Y-127000000D01*
X93980000Y-127000000D02*
X96520000Y-124460000D01*
X166370000Y-124460000D02*
X169420000Y-127510000D01*
X119000000Y-127890000D02*
X119000000Y-127380000D01*
X121920000Y-124460000D02*
X140970000Y-124460000D01*
X147320000Y-124460000D02*
X166370000Y-124460000D01*
X144780000Y-127510000D02*
X144780000Y-127000000D01*
X119000000Y-127380000D02*
X121920000Y-124460000D01*
X115570000Y-124460000D02*
X119000000Y-127890000D01*
X144780000Y-127000000D02*
X147320000Y-124460000D01*
X140970000Y-124460000D02*
X144020000Y-127510000D01*
X96520000Y-124460000D02*
X115570000Y-124460000D01*
%TO.N,Net-(Connector1-Pin_5)*%
X119380000Y-102110000D02*
X120140000Y-102110000D01*
X140970000Y-99060000D02*
X144400000Y-102490000D01*
X148210000Y-99060000D02*
X166370000Y-99060000D01*
X144400000Y-102490000D02*
X144780000Y-102490000D01*
X120140000Y-102110000D02*
X123190000Y-99060000D01*
X118620000Y-102110000D02*
X119380000Y-102110000D01*
X123190000Y-99060000D02*
X140970000Y-99060000D01*
X115570000Y-99060000D02*
X118620000Y-102110000D01*
X97410000Y-99060000D02*
X115570000Y-99060000D01*
X144780000Y-102490000D02*
X148210000Y-99060000D01*
X166370000Y-99060000D02*
X170180000Y-102870000D01*
X93980000Y-102490000D02*
X97410000Y-99060000D01*
%TO.N,Net-(Connector1-Pin_3)*%
X148210000Y-71120000D02*
X166750000Y-71120000D01*
X166750000Y-71120000D02*
X170180000Y-74550000D01*
X119380000Y-74550000D02*
X119760000Y-74550000D01*
X140970000Y-71120000D02*
X144400000Y-74550000D01*
X93980000Y-74550000D02*
X97410000Y-71120000D01*
X97410000Y-71120000D02*
X115570000Y-71120000D01*
X144780000Y-74550000D02*
X148210000Y-71120000D01*
X115570000Y-71120000D02*
X119000000Y-74550000D01*
X144400000Y-74550000D02*
X144780000Y-74550000D01*
X119000000Y-74550000D02*
X119380000Y-74550000D01*
X119760000Y-74550000D02*
X123190000Y-71120000D01*
X123190000Y-71120000D02*
X140970000Y-71120000D01*
%TO.N,Net-(Connector1-Pin_1)*%
X93980000Y-49150000D02*
X94360000Y-49150000D01*
X140970000Y-45720000D02*
X144400000Y-49150000D01*
X115570000Y-45720000D02*
X119000000Y-49150000D01*
X166370000Y-45720000D02*
X170180000Y-49530000D01*
X144780000Y-49150000D02*
X145160000Y-49150000D01*
X123190000Y-45720000D02*
X140970000Y-45720000D01*
X144400000Y-49150000D02*
X144780000Y-49150000D01*
X119380000Y-49150000D02*
X119760000Y-49150000D01*
X119000000Y-49150000D02*
X119380000Y-49150000D01*
X148590000Y-45720000D02*
X166370000Y-45720000D01*
X145160000Y-49150000D02*
X148590000Y-45720000D01*
X97790000Y-45720000D02*
X115570000Y-45720000D01*
X119760000Y-49150000D02*
X123190000Y-45720000D01*
X94360000Y-49150000D02*
X97790000Y-45720000D01*
%TD*%
M02*
