M48
; DRILL file {KiCad 7.0.9-7.0.9~ubuntu22.04.1} date Do 14 Dez 2023 14:57:34
; FORMAT={-:-/ absolute / inch / decimal}
; #@! TF.CreationDate,2023-12-14T14:57:34+01:00
; #@! TF.GenerationSoftware,Kicad,Pcbnew,7.0.9-7.0.9~ubuntu22.04.1
; #@! TF.FileFunction,Plated,1,2,PTH
FMAT,2
INCH
; #@! TA.AperFunction,Plated,PTH,ComponentDrill
T1C0.0394
; #@! TA.AperFunction,Plated,PTH,ComponentDrill
T2C0.0591
%
G90
G05
T1
X5.45Y-1.3606
X5.45Y-1.4606
X5.55Y-1.3606
X5.55Y-1.4606
X5.65Y-1.3606
X5.65Y-1.4606
X5.75Y-1.3606
X5.75Y-1.4606
T2
X4.1Y-2.2
X4.1Y-3.2
X4.1Y-4.3
X4.1Y-5.3
X4.35Y-2.1
X4.35Y-3.1
X4.35Y-4.2
X4.35Y-5.2
X5.1Y-2.2
X5.1Y-3.2
X5.1Y-4.3
X5.1Y-5.3
X5.35Y-2.1
X5.35Y-3.1
X5.35Y-4.2
X5.35Y-5.2
X6.1Y-2.2
X6.1Y-3.2
X6.1Y-4.3
X6.1Y-5.3
X6.35Y-2.1
X6.35Y-3.1
X6.35Y-4.2
X6.35Y-5.2
X7.1Y-2.2
X7.1Y-3.2
X7.1Y-4.3
X7.1Y-5.3
X7.35Y-2.1
X7.35Y-3.1
X7.35Y-4.2
X7.35Y-5.2
T0
M30
