%TF.GenerationSoftware,KiCad,Pcbnew,7.0.9-7.0.9~ubuntu22.04.1*%
%TF.CreationDate,2023-12-14T14:55:03+01:00*%
%TF.ProjectId,odooPad,6f646f6f-5061-4642-9e6b-696361645f70,rev?*%
%TF.SameCoordinates,Original*%
%TF.FileFunction,Copper,L1,Top*%
%TF.FilePolarity,Positive*%
%FSLAX46Y46*%
G04 Gerber Fmt 4.6, Leading zero omitted, Abs format (unit mm)*
G04 Created by KiCad (PCBNEW 7.0.9-7.0.9~ubuntu22.04.1) date 2023-12-14 14:55:03*
%MOMM*%
%LPD*%
G01*
G04 APERTURE LIST*
%ADD10C,0.300000*%
%TA.AperFunction,NonConductor*%
%ADD11C,0.300000*%
%TD*%
%TA.AperFunction,ComponentPad*%
%ADD12R,1.700000X1.700000*%
%TD*%
%TA.AperFunction,ComponentPad*%
%ADD13O,1.700000X1.700000*%
%TD*%
%TA.AperFunction,ComponentPad*%
%ADD14C,2.200000*%
%TD*%
%TA.AperFunction,Conductor*%
%ADD15C,0.250000*%
%TD*%
G04 APERTURE END LIST*
D10*
D11*
X98630225Y-30300828D02*
X98915939Y-30300828D01*
X98915939Y-30300828D02*
X99058796Y-30372257D01*
X99058796Y-30372257D02*
X99201653Y-30515114D01*
X99201653Y-30515114D02*
X99273082Y-30800828D01*
X99273082Y-30800828D02*
X99273082Y-31300828D01*
X99273082Y-31300828D02*
X99201653Y-31586542D01*
X99201653Y-31586542D02*
X99058796Y-31729400D01*
X99058796Y-31729400D02*
X98915939Y-31800828D01*
X98915939Y-31800828D02*
X98630225Y-31800828D01*
X98630225Y-31800828D02*
X98487368Y-31729400D01*
X98487368Y-31729400D02*
X98344510Y-31586542D01*
X98344510Y-31586542D02*
X98273082Y-31300828D01*
X98273082Y-31300828D02*
X98273082Y-30800828D01*
X98273082Y-30800828D02*
X98344510Y-30515114D01*
X98344510Y-30515114D02*
X98487368Y-30372257D01*
X98487368Y-30372257D02*
X98630225Y-30300828D01*
X100558797Y-31800828D02*
X100558797Y-30300828D01*
X100558797Y-31729400D02*
X100415939Y-31800828D01*
X100415939Y-31800828D02*
X100130225Y-31800828D01*
X100130225Y-31800828D02*
X99987368Y-31729400D01*
X99987368Y-31729400D02*
X99915939Y-31657971D01*
X99915939Y-31657971D02*
X99844511Y-31515114D01*
X99844511Y-31515114D02*
X99844511Y-31086542D01*
X99844511Y-31086542D02*
X99915939Y-30943685D01*
X99915939Y-30943685D02*
X99987368Y-30872257D01*
X99987368Y-30872257D02*
X100130225Y-30800828D01*
X100130225Y-30800828D02*
X100415939Y-30800828D01*
X100415939Y-30800828D02*
X100558797Y-30872257D01*
X101487368Y-31800828D02*
X101344511Y-31729400D01*
X101344511Y-31729400D02*
X101273082Y-31657971D01*
X101273082Y-31657971D02*
X101201654Y-31515114D01*
X101201654Y-31515114D02*
X101201654Y-31086542D01*
X101201654Y-31086542D02*
X101273082Y-30943685D01*
X101273082Y-30943685D02*
X101344511Y-30872257D01*
X101344511Y-30872257D02*
X101487368Y-30800828D01*
X101487368Y-30800828D02*
X101701654Y-30800828D01*
X101701654Y-30800828D02*
X101844511Y-30872257D01*
X101844511Y-30872257D02*
X101915940Y-30943685D01*
X101915940Y-30943685D02*
X101987368Y-31086542D01*
X101987368Y-31086542D02*
X101987368Y-31515114D01*
X101987368Y-31515114D02*
X101915940Y-31657971D01*
X101915940Y-31657971D02*
X101844511Y-31729400D01*
X101844511Y-31729400D02*
X101701654Y-31800828D01*
X101701654Y-31800828D02*
X101487368Y-31800828D01*
X102844511Y-31800828D02*
X102701654Y-31729400D01*
X102701654Y-31729400D02*
X102630225Y-31657971D01*
X102630225Y-31657971D02*
X102558797Y-31515114D01*
X102558797Y-31515114D02*
X102558797Y-31086542D01*
X102558797Y-31086542D02*
X102630225Y-30943685D01*
X102630225Y-30943685D02*
X102701654Y-30872257D01*
X102701654Y-30872257D02*
X102844511Y-30800828D01*
X102844511Y-30800828D02*
X103058797Y-30800828D01*
X103058797Y-30800828D02*
X103201654Y-30872257D01*
X103201654Y-30872257D02*
X103273083Y-30943685D01*
X103273083Y-30943685D02*
X103344511Y-31086542D01*
X103344511Y-31086542D02*
X103344511Y-31515114D01*
X103344511Y-31515114D02*
X103273083Y-31657971D01*
X103273083Y-31657971D02*
X103201654Y-31729400D01*
X103201654Y-31729400D02*
X103058797Y-31800828D01*
X103058797Y-31800828D02*
X102844511Y-31800828D01*
X103987368Y-31800828D02*
X103987368Y-30300828D01*
X103987368Y-30300828D02*
X104558797Y-30300828D01*
X104558797Y-30300828D02*
X104701654Y-30372257D01*
X104701654Y-30372257D02*
X104773083Y-30443685D01*
X104773083Y-30443685D02*
X104844511Y-30586542D01*
X104844511Y-30586542D02*
X104844511Y-30800828D01*
X104844511Y-30800828D02*
X104773083Y-30943685D01*
X104773083Y-30943685D02*
X104701654Y-31015114D01*
X104701654Y-31015114D02*
X104558797Y-31086542D01*
X104558797Y-31086542D02*
X103987368Y-31086542D01*
X106130226Y-31800828D02*
X106130226Y-31015114D01*
X106130226Y-31015114D02*
X106058797Y-30872257D01*
X106058797Y-30872257D02*
X105915940Y-30800828D01*
X105915940Y-30800828D02*
X105630226Y-30800828D01*
X105630226Y-30800828D02*
X105487368Y-30872257D01*
X106130226Y-31729400D02*
X105987368Y-31800828D01*
X105987368Y-31800828D02*
X105630226Y-31800828D01*
X105630226Y-31800828D02*
X105487368Y-31729400D01*
X105487368Y-31729400D02*
X105415940Y-31586542D01*
X105415940Y-31586542D02*
X105415940Y-31443685D01*
X105415940Y-31443685D02*
X105487368Y-31300828D01*
X105487368Y-31300828D02*
X105630226Y-31229400D01*
X105630226Y-31229400D02*
X105987368Y-31229400D01*
X105987368Y-31229400D02*
X106130226Y-31157971D01*
X107487369Y-31800828D02*
X107487369Y-30300828D01*
X107487369Y-31729400D02*
X107344511Y-31800828D01*
X107344511Y-31800828D02*
X107058797Y-31800828D01*
X107058797Y-31800828D02*
X106915940Y-31729400D01*
X106915940Y-31729400D02*
X106844511Y-31657971D01*
X106844511Y-31657971D02*
X106773083Y-31515114D01*
X106773083Y-31515114D02*
X106773083Y-31086542D01*
X106773083Y-31086542D02*
X106844511Y-30943685D01*
X106844511Y-30943685D02*
X106915940Y-30872257D01*
X106915940Y-30872257D02*
X107058797Y-30800828D01*
X107058797Y-30800828D02*
X107344511Y-30800828D01*
X107344511Y-30800828D02*
X107487369Y-30872257D01*
X109130226Y-30300828D02*
X109630226Y-31800828D01*
X109630226Y-31800828D02*
X110130226Y-30300828D01*
X110558797Y-30443685D02*
X110630225Y-30372257D01*
X110630225Y-30372257D02*
X110773083Y-30300828D01*
X110773083Y-30300828D02*
X111130225Y-30300828D01*
X111130225Y-30300828D02*
X111273083Y-30372257D01*
X111273083Y-30372257D02*
X111344511Y-30443685D01*
X111344511Y-30443685D02*
X111415940Y-30586542D01*
X111415940Y-30586542D02*
X111415940Y-30729400D01*
X111415940Y-30729400D02*
X111344511Y-30943685D01*
X111344511Y-30943685D02*
X110487368Y-31800828D01*
X110487368Y-31800828D02*
X111415940Y-31800828D01*
X112058796Y-31657971D02*
X112130225Y-31729400D01*
X112130225Y-31729400D02*
X112058796Y-31800828D01*
X112058796Y-31800828D02*
X111987368Y-31729400D01*
X111987368Y-31729400D02*
X112058796Y-31657971D01*
X112058796Y-31657971D02*
X112058796Y-31800828D01*
X113058797Y-30300828D02*
X113201654Y-30300828D01*
X113201654Y-30300828D02*
X113344511Y-30372257D01*
X113344511Y-30372257D02*
X113415940Y-30443685D01*
X113415940Y-30443685D02*
X113487368Y-30586542D01*
X113487368Y-30586542D02*
X113558797Y-30872257D01*
X113558797Y-30872257D02*
X113558797Y-31229400D01*
X113558797Y-31229400D02*
X113487368Y-31515114D01*
X113487368Y-31515114D02*
X113415940Y-31657971D01*
X113415940Y-31657971D02*
X113344511Y-31729400D01*
X113344511Y-31729400D02*
X113201654Y-31800828D01*
X113201654Y-31800828D02*
X113058797Y-31800828D01*
X113058797Y-31800828D02*
X112915940Y-31729400D01*
X112915940Y-31729400D02*
X112844511Y-31657971D01*
X112844511Y-31657971D02*
X112773082Y-31515114D01*
X112773082Y-31515114D02*
X112701654Y-31229400D01*
X112701654Y-31229400D02*
X112701654Y-30872257D01*
X112701654Y-30872257D02*
X112773082Y-30586542D01*
X112773082Y-30586542D02*
X112844511Y-30443685D01*
X112844511Y-30443685D02*
X112915940Y-30372257D01*
X112915940Y-30372257D02*
X113058797Y-30300828D01*
X98773082Y-34787257D02*
X98701653Y-34715828D01*
X98701653Y-34715828D02*
X98558796Y-34501542D01*
X98558796Y-34501542D02*
X98487368Y-34358685D01*
X98487368Y-34358685D02*
X98415939Y-34144400D01*
X98415939Y-34144400D02*
X98344510Y-33787257D01*
X98344510Y-33787257D02*
X98344510Y-33501542D01*
X98344510Y-33501542D02*
X98415939Y-33144400D01*
X98415939Y-33144400D02*
X98487368Y-32930114D01*
X98487368Y-32930114D02*
X98558796Y-32787257D01*
X98558796Y-32787257D02*
X98701653Y-32572971D01*
X98701653Y-32572971D02*
X98773082Y-32501542D01*
X99344510Y-33215828D02*
X99344510Y-34215828D01*
X99344510Y-33358685D02*
X99415939Y-33287257D01*
X99415939Y-33287257D02*
X99558796Y-33215828D01*
X99558796Y-33215828D02*
X99773082Y-33215828D01*
X99773082Y-33215828D02*
X99915939Y-33287257D01*
X99915939Y-33287257D02*
X99987368Y-33430114D01*
X99987368Y-33430114D02*
X99987368Y-34215828D01*
X100915939Y-34215828D02*
X100773082Y-34144400D01*
X100773082Y-34144400D02*
X100701653Y-34072971D01*
X100701653Y-34072971D02*
X100630225Y-33930114D01*
X100630225Y-33930114D02*
X100630225Y-33501542D01*
X100630225Y-33501542D02*
X100701653Y-33358685D01*
X100701653Y-33358685D02*
X100773082Y-33287257D01*
X100773082Y-33287257D02*
X100915939Y-33215828D01*
X100915939Y-33215828D02*
X101130225Y-33215828D01*
X101130225Y-33215828D02*
X101273082Y-33287257D01*
X101273082Y-33287257D02*
X101344511Y-33358685D01*
X101344511Y-33358685D02*
X101415939Y-33501542D01*
X101415939Y-33501542D02*
X101415939Y-33930114D01*
X101415939Y-33930114D02*
X101344511Y-34072971D01*
X101344511Y-34072971D02*
X101273082Y-34144400D01*
X101273082Y-34144400D02*
X101130225Y-34215828D01*
X101130225Y-34215828D02*
X100915939Y-34215828D01*
X101844511Y-33215828D02*
X102415939Y-33215828D01*
X102058796Y-32715828D02*
X102058796Y-34001542D01*
X102058796Y-34001542D02*
X102130225Y-34144400D01*
X102130225Y-34144400D02*
X102273082Y-34215828D01*
X102273082Y-34215828D02*
X102415939Y-34215828D01*
X104701654Y-34215828D02*
X104701654Y-33430114D01*
X104701654Y-33430114D02*
X104630225Y-33287257D01*
X104630225Y-33287257D02*
X104487368Y-33215828D01*
X104487368Y-33215828D02*
X104201654Y-33215828D01*
X104201654Y-33215828D02*
X104058796Y-33287257D01*
X104701654Y-34144400D02*
X104558796Y-34215828D01*
X104558796Y-34215828D02*
X104201654Y-34215828D01*
X104201654Y-34215828D02*
X104058796Y-34144400D01*
X104058796Y-34144400D02*
X103987368Y-34001542D01*
X103987368Y-34001542D02*
X103987368Y-33858685D01*
X103987368Y-33858685D02*
X104058796Y-33715828D01*
X104058796Y-33715828D02*
X104201654Y-33644400D01*
X104201654Y-33644400D02*
X104558796Y-33644400D01*
X104558796Y-33644400D02*
X104701654Y-33572971D01*
X105415939Y-33215828D02*
X105415939Y-34215828D01*
X105415939Y-33358685D02*
X105487368Y-33287257D01*
X105487368Y-33287257D02*
X105630225Y-33215828D01*
X105630225Y-33215828D02*
X105844511Y-33215828D01*
X105844511Y-33215828D02*
X105987368Y-33287257D01*
X105987368Y-33287257D02*
X106058797Y-33430114D01*
X106058797Y-33430114D02*
X106058797Y-34215828D01*
X108130225Y-34215828D02*
X107987368Y-34144400D01*
X107987368Y-34144400D02*
X107915939Y-34072971D01*
X107915939Y-34072971D02*
X107844511Y-33930114D01*
X107844511Y-33930114D02*
X107844511Y-33501542D01*
X107844511Y-33501542D02*
X107915939Y-33358685D01*
X107915939Y-33358685D02*
X107987368Y-33287257D01*
X107987368Y-33287257D02*
X108130225Y-33215828D01*
X108130225Y-33215828D02*
X108344511Y-33215828D01*
X108344511Y-33215828D02*
X108487368Y-33287257D01*
X108487368Y-33287257D02*
X108558797Y-33358685D01*
X108558797Y-33358685D02*
X108630225Y-33501542D01*
X108630225Y-33501542D02*
X108630225Y-33930114D01*
X108630225Y-33930114D02*
X108558797Y-34072971D01*
X108558797Y-34072971D02*
X108487368Y-34144400D01*
X108487368Y-34144400D02*
X108344511Y-34215828D01*
X108344511Y-34215828D02*
X108130225Y-34215828D01*
X109058797Y-33215828D02*
X109630225Y-33215828D01*
X109273082Y-34215828D02*
X109273082Y-32930114D01*
X109273082Y-32930114D02*
X109344511Y-32787257D01*
X109344511Y-32787257D02*
X109487368Y-32715828D01*
X109487368Y-32715828D02*
X109630225Y-32715828D01*
X109915940Y-33215828D02*
X110487368Y-33215828D01*
X110130225Y-34215828D02*
X110130225Y-32930114D01*
X110130225Y-32930114D02*
X110201654Y-32787257D01*
X110201654Y-32787257D02*
X110344511Y-32715828D01*
X110344511Y-32715828D02*
X110487368Y-32715828D01*
X110987368Y-34215828D02*
X110987368Y-33215828D01*
X110987368Y-32715828D02*
X110915940Y-32787257D01*
X110915940Y-32787257D02*
X110987368Y-32858685D01*
X110987368Y-32858685D02*
X111058797Y-32787257D01*
X111058797Y-32787257D02*
X110987368Y-32715828D01*
X110987368Y-32715828D02*
X110987368Y-32858685D01*
X112344512Y-34144400D02*
X112201654Y-34215828D01*
X112201654Y-34215828D02*
X111915940Y-34215828D01*
X111915940Y-34215828D02*
X111773083Y-34144400D01*
X111773083Y-34144400D02*
X111701654Y-34072971D01*
X111701654Y-34072971D02*
X111630226Y-33930114D01*
X111630226Y-33930114D02*
X111630226Y-33501542D01*
X111630226Y-33501542D02*
X111701654Y-33358685D01*
X111701654Y-33358685D02*
X111773083Y-33287257D01*
X111773083Y-33287257D02*
X111915940Y-33215828D01*
X111915940Y-33215828D02*
X112201654Y-33215828D01*
X112201654Y-33215828D02*
X112344512Y-33287257D01*
X112987368Y-34215828D02*
X112987368Y-33215828D01*
X112987368Y-32715828D02*
X112915940Y-32787257D01*
X112915940Y-32787257D02*
X112987368Y-32858685D01*
X112987368Y-32858685D02*
X113058797Y-32787257D01*
X113058797Y-32787257D02*
X112987368Y-32715828D01*
X112987368Y-32715828D02*
X112987368Y-32858685D01*
X114344512Y-34215828D02*
X114344512Y-33430114D01*
X114344512Y-33430114D02*
X114273083Y-33287257D01*
X114273083Y-33287257D02*
X114130226Y-33215828D01*
X114130226Y-33215828D02*
X113844512Y-33215828D01*
X113844512Y-33215828D02*
X113701654Y-33287257D01*
X114344512Y-34144400D02*
X114201654Y-34215828D01*
X114201654Y-34215828D02*
X113844512Y-34215828D01*
X113844512Y-34215828D02*
X113701654Y-34144400D01*
X113701654Y-34144400D02*
X113630226Y-34001542D01*
X113630226Y-34001542D02*
X113630226Y-33858685D01*
X113630226Y-33858685D02*
X113701654Y-33715828D01*
X113701654Y-33715828D02*
X113844512Y-33644400D01*
X113844512Y-33644400D02*
X114201654Y-33644400D01*
X114201654Y-33644400D02*
X114344512Y-33572971D01*
X115273083Y-34215828D02*
X115130226Y-34144400D01*
X115130226Y-34144400D02*
X115058797Y-34001542D01*
X115058797Y-34001542D02*
X115058797Y-32715828D01*
X117201654Y-34215828D02*
X117058797Y-34144400D01*
X117058797Y-34144400D02*
X116987368Y-34072971D01*
X116987368Y-34072971D02*
X116915940Y-33930114D01*
X116915940Y-33930114D02*
X116915940Y-33501542D01*
X116915940Y-33501542D02*
X116987368Y-33358685D01*
X116987368Y-33358685D02*
X117058797Y-33287257D01*
X117058797Y-33287257D02*
X117201654Y-33215828D01*
X117201654Y-33215828D02*
X117415940Y-33215828D01*
X117415940Y-33215828D02*
X117558797Y-33287257D01*
X117558797Y-33287257D02*
X117630226Y-33358685D01*
X117630226Y-33358685D02*
X117701654Y-33501542D01*
X117701654Y-33501542D02*
X117701654Y-33930114D01*
X117701654Y-33930114D02*
X117630226Y-34072971D01*
X117630226Y-34072971D02*
X117558797Y-34144400D01*
X117558797Y-34144400D02*
X117415940Y-34215828D01*
X117415940Y-34215828D02*
X117201654Y-34215828D01*
X118987369Y-34215828D02*
X118987369Y-32715828D01*
X118987369Y-34144400D02*
X118844511Y-34215828D01*
X118844511Y-34215828D02*
X118558797Y-34215828D01*
X118558797Y-34215828D02*
X118415940Y-34144400D01*
X118415940Y-34144400D02*
X118344511Y-34072971D01*
X118344511Y-34072971D02*
X118273083Y-33930114D01*
X118273083Y-33930114D02*
X118273083Y-33501542D01*
X118273083Y-33501542D02*
X118344511Y-33358685D01*
X118344511Y-33358685D02*
X118415940Y-33287257D01*
X118415940Y-33287257D02*
X118558797Y-33215828D01*
X118558797Y-33215828D02*
X118844511Y-33215828D01*
X118844511Y-33215828D02*
X118987369Y-33287257D01*
X119915940Y-34215828D02*
X119773083Y-34144400D01*
X119773083Y-34144400D02*
X119701654Y-34072971D01*
X119701654Y-34072971D02*
X119630226Y-33930114D01*
X119630226Y-33930114D02*
X119630226Y-33501542D01*
X119630226Y-33501542D02*
X119701654Y-33358685D01*
X119701654Y-33358685D02*
X119773083Y-33287257D01*
X119773083Y-33287257D02*
X119915940Y-33215828D01*
X119915940Y-33215828D02*
X120130226Y-33215828D01*
X120130226Y-33215828D02*
X120273083Y-33287257D01*
X120273083Y-33287257D02*
X120344512Y-33358685D01*
X120344512Y-33358685D02*
X120415940Y-33501542D01*
X120415940Y-33501542D02*
X120415940Y-33930114D01*
X120415940Y-33930114D02*
X120344512Y-34072971D01*
X120344512Y-34072971D02*
X120273083Y-34144400D01*
X120273083Y-34144400D02*
X120130226Y-34215828D01*
X120130226Y-34215828D02*
X119915940Y-34215828D01*
X121273083Y-34215828D02*
X121130226Y-34144400D01*
X121130226Y-34144400D02*
X121058797Y-34072971D01*
X121058797Y-34072971D02*
X120987369Y-33930114D01*
X120987369Y-33930114D02*
X120987369Y-33501542D01*
X120987369Y-33501542D02*
X121058797Y-33358685D01*
X121058797Y-33358685D02*
X121130226Y-33287257D01*
X121130226Y-33287257D02*
X121273083Y-33215828D01*
X121273083Y-33215828D02*
X121487369Y-33215828D01*
X121487369Y-33215828D02*
X121630226Y-33287257D01*
X121630226Y-33287257D02*
X121701655Y-33358685D01*
X121701655Y-33358685D02*
X121773083Y-33501542D01*
X121773083Y-33501542D02*
X121773083Y-33930114D01*
X121773083Y-33930114D02*
X121701655Y-34072971D01*
X121701655Y-34072971D02*
X121630226Y-34144400D01*
X121630226Y-34144400D02*
X121487369Y-34215828D01*
X121487369Y-34215828D02*
X121273083Y-34215828D01*
X123558797Y-33215828D02*
X123558797Y-34715828D01*
X123558797Y-33287257D02*
X123701655Y-33215828D01*
X123701655Y-33215828D02*
X123987369Y-33215828D01*
X123987369Y-33215828D02*
X124130226Y-33287257D01*
X124130226Y-33287257D02*
X124201655Y-33358685D01*
X124201655Y-33358685D02*
X124273083Y-33501542D01*
X124273083Y-33501542D02*
X124273083Y-33930114D01*
X124273083Y-33930114D02*
X124201655Y-34072971D01*
X124201655Y-34072971D02*
X124130226Y-34144400D01*
X124130226Y-34144400D02*
X123987369Y-34215828D01*
X123987369Y-34215828D02*
X123701655Y-34215828D01*
X123701655Y-34215828D02*
X123558797Y-34144400D01*
X124915940Y-34215828D02*
X124915940Y-33215828D01*
X124915940Y-33501542D02*
X124987369Y-33358685D01*
X124987369Y-33358685D02*
X125058798Y-33287257D01*
X125058798Y-33287257D02*
X125201655Y-33215828D01*
X125201655Y-33215828D02*
X125344512Y-33215828D01*
X126058797Y-34215828D02*
X125915940Y-34144400D01*
X125915940Y-34144400D02*
X125844511Y-34072971D01*
X125844511Y-34072971D02*
X125773083Y-33930114D01*
X125773083Y-33930114D02*
X125773083Y-33501542D01*
X125773083Y-33501542D02*
X125844511Y-33358685D01*
X125844511Y-33358685D02*
X125915940Y-33287257D01*
X125915940Y-33287257D02*
X126058797Y-33215828D01*
X126058797Y-33215828D02*
X126273083Y-33215828D01*
X126273083Y-33215828D02*
X126415940Y-33287257D01*
X126415940Y-33287257D02*
X126487369Y-33358685D01*
X126487369Y-33358685D02*
X126558797Y-33501542D01*
X126558797Y-33501542D02*
X126558797Y-33930114D01*
X126558797Y-33930114D02*
X126487369Y-34072971D01*
X126487369Y-34072971D02*
X126415940Y-34144400D01*
X126415940Y-34144400D02*
X126273083Y-34215828D01*
X126273083Y-34215828D02*
X126058797Y-34215828D01*
X127844512Y-34215828D02*
X127844512Y-32715828D01*
X127844512Y-34144400D02*
X127701654Y-34215828D01*
X127701654Y-34215828D02*
X127415940Y-34215828D01*
X127415940Y-34215828D02*
X127273083Y-34144400D01*
X127273083Y-34144400D02*
X127201654Y-34072971D01*
X127201654Y-34072971D02*
X127130226Y-33930114D01*
X127130226Y-33930114D02*
X127130226Y-33501542D01*
X127130226Y-33501542D02*
X127201654Y-33358685D01*
X127201654Y-33358685D02*
X127273083Y-33287257D01*
X127273083Y-33287257D02*
X127415940Y-33215828D01*
X127415940Y-33215828D02*
X127701654Y-33215828D01*
X127701654Y-33215828D02*
X127844512Y-33287257D01*
X129201655Y-33215828D02*
X129201655Y-34215828D01*
X128558797Y-33215828D02*
X128558797Y-34001542D01*
X128558797Y-34001542D02*
X128630226Y-34144400D01*
X128630226Y-34144400D02*
X128773083Y-34215828D01*
X128773083Y-34215828D02*
X128987369Y-34215828D01*
X128987369Y-34215828D02*
X129130226Y-34144400D01*
X129130226Y-34144400D02*
X129201655Y-34072971D01*
X130558798Y-34144400D02*
X130415940Y-34215828D01*
X130415940Y-34215828D02*
X130130226Y-34215828D01*
X130130226Y-34215828D02*
X129987369Y-34144400D01*
X129987369Y-34144400D02*
X129915940Y-34072971D01*
X129915940Y-34072971D02*
X129844512Y-33930114D01*
X129844512Y-33930114D02*
X129844512Y-33501542D01*
X129844512Y-33501542D02*
X129915940Y-33358685D01*
X129915940Y-33358685D02*
X129987369Y-33287257D01*
X129987369Y-33287257D02*
X130130226Y-33215828D01*
X130130226Y-33215828D02*
X130415940Y-33215828D01*
X130415940Y-33215828D02*
X130558798Y-33287257D01*
X130987369Y-33215828D02*
X131558797Y-33215828D01*
X131201654Y-32715828D02*
X131201654Y-34001542D01*
X131201654Y-34001542D02*
X131273083Y-34144400D01*
X131273083Y-34144400D02*
X131415940Y-34215828D01*
X131415940Y-34215828D02*
X131558797Y-34215828D01*
X131915940Y-34787257D02*
X131987369Y-34715828D01*
X131987369Y-34715828D02*
X132130226Y-34501542D01*
X132130226Y-34501542D02*
X132201655Y-34358685D01*
X132201655Y-34358685D02*
X132273083Y-34144400D01*
X132273083Y-34144400D02*
X132344512Y-33787257D01*
X132344512Y-33787257D02*
X132344512Y-33501542D01*
X132344512Y-33501542D02*
X132273083Y-33144400D01*
X132273083Y-33144400D02*
X132201655Y-32930114D01*
X132201655Y-32930114D02*
X132130226Y-32787257D01*
X132130226Y-32787257D02*
X131987369Y-32572971D01*
X131987369Y-32572971D02*
X131915940Y-32501542D01*
X99201653Y-36487971D02*
X99130225Y-36559400D01*
X99130225Y-36559400D02*
X98915939Y-36630828D01*
X98915939Y-36630828D02*
X98773082Y-36630828D01*
X98773082Y-36630828D02*
X98558796Y-36559400D01*
X98558796Y-36559400D02*
X98415939Y-36416542D01*
X98415939Y-36416542D02*
X98344510Y-36273685D01*
X98344510Y-36273685D02*
X98273082Y-35987971D01*
X98273082Y-35987971D02*
X98273082Y-35773685D01*
X98273082Y-35773685D02*
X98344510Y-35487971D01*
X98344510Y-35487971D02*
X98415939Y-35345114D01*
X98415939Y-35345114D02*
X98558796Y-35202257D01*
X98558796Y-35202257D02*
X98773082Y-35130828D01*
X98773082Y-35130828D02*
X98915939Y-35130828D01*
X98915939Y-35130828D02*
X99130225Y-35202257D01*
X99130225Y-35202257D02*
X99201653Y-35273685D01*
X99844510Y-36630828D02*
X99844510Y-35630828D01*
X99844510Y-35916542D02*
X99915939Y-35773685D01*
X99915939Y-35773685D02*
X99987368Y-35702257D01*
X99987368Y-35702257D02*
X100130225Y-35630828D01*
X100130225Y-35630828D02*
X100273082Y-35630828D01*
X101344510Y-36559400D02*
X101201653Y-36630828D01*
X101201653Y-36630828D02*
X100915939Y-36630828D01*
X100915939Y-36630828D02*
X100773081Y-36559400D01*
X100773081Y-36559400D02*
X100701653Y-36416542D01*
X100701653Y-36416542D02*
X100701653Y-35845114D01*
X100701653Y-35845114D02*
X100773081Y-35702257D01*
X100773081Y-35702257D02*
X100915939Y-35630828D01*
X100915939Y-35630828D02*
X101201653Y-35630828D01*
X101201653Y-35630828D02*
X101344510Y-35702257D01*
X101344510Y-35702257D02*
X101415939Y-35845114D01*
X101415939Y-35845114D02*
X101415939Y-35987971D01*
X101415939Y-35987971D02*
X100701653Y-36130828D01*
X102701653Y-36630828D02*
X102701653Y-35845114D01*
X102701653Y-35845114D02*
X102630224Y-35702257D01*
X102630224Y-35702257D02*
X102487367Y-35630828D01*
X102487367Y-35630828D02*
X102201653Y-35630828D01*
X102201653Y-35630828D02*
X102058795Y-35702257D01*
X102701653Y-36559400D02*
X102558795Y-36630828D01*
X102558795Y-36630828D02*
X102201653Y-36630828D01*
X102201653Y-36630828D02*
X102058795Y-36559400D01*
X102058795Y-36559400D02*
X101987367Y-36416542D01*
X101987367Y-36416542D02*
X101987367Y-36273685D01*
X101987367Y-36273685D02*
X102058795Y-36130828D01*
X102058795Y-36130828D02*
X102201653Y-36059400D01*
X102201653Y-36059400D02*
X102558795Y-36059400D01*
X102558795Y-36059400D02*
X102701653Y-35987971D01*
X103201653Y-35630828D02*
X103773081Y-35630828D01*
X103415938Y-35130828D02*
X103415938Y-36416542D01*
X103415938Y-36416542D02*
X103487367Y-36559400D01*
X103487367Y-36559400D02*
X103630224Y-36630828D01*
X103630224Y-36630828D02*
X103773081Y-36630828D01*
X104844510Y-36559400D02*
X104701653Y-36630828D01*
X104701653Y-36630828D02*
X104415939Y-36630828D01*
X104415939Y-36630828D02*
X104273081Y-36559400D01*
X104273081Y-36559400D02*
X104201653Y-36416542D01*
X104201653Y-36416542D02*
X104201653Y-35845114D01*
X104201653Y-35845114D02*
X104273081Y-35702257D01*
X104273081Y-35702257D02*
X104415939Y-35630828D01*
X104415939Y-35630828D02*
X104701653Y-35630828D01*
X104701653Y-35630828D02*
X104844510Y-35702257D01*
X104844510Y-35702257D02*
X104915939Y-35845114D01*
X104915939Y-35845114D02*
X104915939Y-35987971D01*
X104915939Y-35987971D02*
X104201653Y-36130828D01*
X106201653Y-36630828D02*
X106201653Y-35130828D01*
X106201653Y-36559400D02*
X106058795Y-36630828D01*
X106058795Y-36630828D02*
X105773081Y-36630828D01*
X105773081Y-36630828D02*
X105630224Y-36559400D01*
X105630224Y-36559400D02*
X105558795Y-36487971D01*
X105558795Y-36487971D02*
X105487367Y-36345114D01*
X105487367Y-36345114D02*
X105487367Y-35916542D01*
X105487367Y-35916542D02*
X105558795Y-35773685D01*
X105558795Y-35773685D02*
X105630224Y-35702257D01*
X105630224Y-35702257D02*
X105773081Y-35630828D01*
X105773081Y-35630828D02*
X106058795Y-35630828D01*
X106058795Y-35630828D02*
X106201653Y-35702257D01*
X108058795Y-36630828D02*
X108058795Y-35130828D01*
X108058795Y-35702257D02*
X108201653Y-35630828D01*
X108201653Y-35630828D02*
X108487367Y-35630828D01*
X108487367Y-35630828D02*
X108630224Y-35702257D01*
X108630224Y-35702257D02*
X108701653Y-35773685D01*
X108701653Y-35773685D02*
X108773081Y-35916542D01*
X108773081Y-35916542D02*
X108773081Y-36345114D01*
X108773081Y-36345114D02*
X108701653Y-36487971D01*
X108701653Y-36487971D02*
X108630224Y-36559400D01*
X108630224Y-36559400D02*
X108487367Y-36630828D01*
X108487367Y-36630828D02*
X108201653Y-36630828D01*
X108201653Y-36630828D02*
X108058795Y-36559400D01*
X109273081Y-35630828D02*
X109630224Y-36630828D01*
X109987367Y-35630828D02*
X109630224Y-36630828D01*
X109630224Y-36630828D02*
X109487367Y-36987971D01*
X109487367Y-36987971D02*
X109415938Y-37059400D01*
X109415938Y-37059400D02*
X109273081Y-37130828D01*
X112201652Y-35845114D02*
X111701652Y-35845114D01*
X111701652Y-36630828D02*
X111701652Y-35130828D01*
X111701652Y-35130828D02*
X112415938Y-35130828D01*
X113701652Y-36630828D02*
X112987366Y-36630828D01*
X112987366Y-36630828D02*
X112987366Y-35130828D01*
X114487367Y-35130828D02*
X114773081Y-35130828D01*
X114773081Y-35130828D02*
X114915938Y-35202257D01*
X114915938Y-35202257D02*
X115058795Y-35345114D01*
X115058795Y-35345114D02*
X115130224Y-35630828D01*
X115130224Y-35630828D02*
X115130224Y-36130828D01*
X115130224Y-36130828D02*
X115058795Y-36416542D01*
X115058795Y-36416542D02*
X114915938Y-36559400D01*
X114915938Y-36559400D02*
X114773081Y-36630828D01*
X114773081Y-36630828D02*
X114487367Y-36630828D01*
X114487367Y-36630828D02*
X114344510Y-36559400D01*
X114344510Y-36559400D02*
X114201652Y-36416542D01*
X114201652Y-36416542D02*
X114130224Y-36130828D01*
X114130224Y-36130828D02*
X114130224Y-35630828D01*
X114130224Y-35630828D02*
X114201652Y-35345114D01*
X114201652Y-35345114D02*
X114344510Y-35202257D01*
X114344510Y-35202257D02*
X114487367Y-35130828D01*
X115773081Y-35130828D02*
X115773081Y-36345114D01*
X115773081Y-36345114D02*
X115844510Y-36487971D01*
X115844510Y-36487971D02*
X115915939Y-36559400D01*
X115915939Y-36559400D02*
X116058796Y-36630828D01*
X116058796Y-36630828D02*
X116344510Y-36630828D01*
X116344510Y-36630828D02*
X116487367Y-36559400D01*
X116487367Y-36559400D02*
X116558796Y-36487971D01*
X116558796Y-36487971D02*
X116630224Y-36345114D01*
X116630224Y-36345114D02*
X116630224Y-35130828D01*
X118415939Y-35273685D02*
X118487367Y-35202257D01*
X118487367Y-35202257D02*
X118630225Y-35130828D01*
X118630225Y-35130828D02*
X118987367Y-35130828D01*
X118987367Y-35130828D02*
X119130225Y-35202257D01*
X119130225Y-35202257D02*
X119201653Y-35273685D01*
X119201653Y-35273685D02*
X119273082Y-35416542D01*
X119273082Y-35416542D02*
X119273082Y-35559400D01*
X119273082Y-35559400D02*
X119201653Y-35773685D01*
X119201653Y-35773685D02*
X118344510Y-36630828D01*
X118344510Y-36630828D02*
X119273082Y-36630828D01*
X120201653Y-35130828D02*
X120344510Y-35130828D01*
X120344510Y-35130828D02*
X120487367Y-35202257D01*
X120487367Y-35202257D02*
X120558796Y-35273685D01*
X120558796Y-35273685D02*
X120630224Y-35416542D01*
X120630224Y-35416542D02*
X120701653Y-35702257D01*
X120701653Y-35702257D02*
X120701653Y-36059400D01*
X120701653Y-36059400D02*
X120630224Y-36345114D01*
X120630224Y-36345114D02*
X120558796Y-36487971D01*
X120558796Y-36487971D02*
X120487367Y-36559400D01*
X120487367Y-36559400D02*
X120344510Y-36630828D01*
X120344510Y-36630828D02*
X120201653Y-36630828D01*
X120201653Y-36630828D02*
X120058796Y-36559400D01*
X120058796Y-36559400D02*
X119987367Y-36487971D01*
X119987367Y-36487971D02*
X119915938Y-36345114D01*
X119915938Y-36345114D02*
X119844510Y-36059400D01*
X119844510Y-36059400D02*
X119844510Y-35702257D01*
X119844510Y-35702257D02*
X119915938Y-35416542D01*
X119915938Y-35416542D02*
X119987367Y-35273685D01*
X119987367Y-35273685D02*
X120058796Y-35202257D01*
X120058796Y-35202257D02*
X120201653Y-35130828D01*
X121273081Y-35273685D02*
X121344509Y-35202257D01*
X121344509Y-35202257D02*
X121487367Y-35130828D01*
X121487367Y-35130828D02*
X121844509Y-35130828D01*
X121844509Y-35130828D02*
X121987367Y-35202257D01*
X121987367Y-35202257D02*
X122058795Y-35273685D01*
X122058795Y-35273685D02*
X122130224Y-35416542D01*
X122130224Y-35416542D02*
X122130224Y-35559400D01*
X122130224Y-35559400D02*
X122058795Y-35773685D01*
X122058795Y-35773685D02*
X121201652Y-36630828D01*
X121201652Y-36630828D02*
X122130224Y-36630828D01*
X122630223Y-35130828D02*
X123558795Y-35130828D01*
X123558795Y-35130828D02*
X123058795Y-35702257D01*
X123058795Y-35702257D02*
X123273080Y-35702257D01*
X123273080Y-35702257D02*
X123415938Y-35773685D01*
X123415938Y-35773685D02*
X123487366Y-35845114D01*
X123487366Y-35845114D02*
X123558795Y-35987971D01*
X123558795Y-35987971D02*
X123558795Y-36345114D01*
X123558795Y-36345114D02*
X123487366Y-36487971D01*
X123487366Y-36487971D02*
X123415938Y-36559400D01*
X123415938Y-36559400D02*
X123273080Y-36630828D01*
X123273080Y-36630828D02*
X122844509Y-36630828D01*
X122844509Y-36630828D02*
X122701652Y-36559400D01*
X122701652Y-36559400D02*
X122630223Y-36487971D01*
D12*
%TO.P,Connector1,1,Pin_1*%
%TO.N,Net-(Connector1-Pin_1)*%
X146050000Y-34560000D03*
D13*
%TO.P,Connector1,2,Pin_2*%
%TO.N,Net-(Connector1-Pin_2)*%
X146050000Y-37100000D03*
%TO.P,Connector1,3,Pin_3*%
%TO.N,Net-(Connector1-Pin_3)*%
X143510000Y-34560000D03*
%TO.P,Connector1,4,Pin_4*%
%TO.N,Net-(Connector1-Pin_4)*%
X143510000Y-37100000D03*
%TO.P,Connector1,5,Pin_5*%
%TO.N,Net-(Connector1-Pin_5)*%
X140970000Y-34560000D03*
%TO.P,Connector1,6,Pin_6*%
%TO.N,Net-(Connector1-Pin_6)*%
X140970000Y-37100000D03*
%TO.P,Connector1,7,Pin_7*%
%TO.N,Net-(Connector1-Pin_7)*%
X138430000Y-34560000D03*
%TO.P,Connector1,8,Pin_8*%
%TO.N,Net-(Connector1-Pin_8)*%
X138430000Y-37100000D03*
%TD*%
D14*
%TO.P,SW12,1,1*%
%TO.N,Net-(Connector1-Pin_4)*%
X154940000Y-134620000D03*
%TO.P,SW12,2,2*%
%TO.N,Net-(D12-A)*%
X161290000Y-132080000D03*
%TD*%
%TO.P,SW13,1,1*%
%TO.N,Net-(Connector1-Pin_2)*%
X180340000Y-55880000D03*
%TO.P,SW13,2,2*%
%TO.N,Net-(D13-A)*%
X186690000Y-53340000D03*
%TD*%
%TO.P,SW6,1,1*%
%TO.N,Net-(Connector1-Pin_6)*%
X129540000Y-81280000D03*
%TO.P,SW6,2,2*%
%TO.N,Net-(D6-A)*%
X135890000Y-78740000D03*
%TD*%
%TO.P,SW1,2,2*%
%TO.N,Net-(D1-A)*%
X110490000Y-53340000D03*
%TO.P,SW1,1,1*%
%TO.N,Net-(Connector1-Pin_8)*%
X104140000Y-55880000D03*
%TD*%
%TO.P,SW15,1,1*%
%TO.N,Net-(Connector1-Pin_2)*%
X180340000Y-109220000D03*
%TO.P,SW15,2,2*%
%TO.N,Net-(D15-A)*%
X186690000Y-106680000D03*
%TD*%
%TO.P,SW16,1,1*%
%TO.N,Net-(Connector1-Pin_2)*%
X180340000Y-134620000D03*
%TO.P,SW16,2,2*%
%TO.N,Net-(D16-A)*%
X186690000Y-132080000D03*
%TD*%
%TO.P,SW9,1,1*%
%TO.N,Net-(Connector1-Pin_4)*%
X154940000Y-55880000D03*
%TO.P,SW9,2,2*%
%TO.N,Net-(D9-A)*%
X161290000Y-53340000D03*
%TD*%
%TO.P,SW8,1,1*%
%TO.N,Net-(Connector1-Pin_6)*%
X129540000Y-134620000D03*
%TO.P,SW8,2,2*%
%TO.N,Net-(D8-A)*%
X135890000Y-132080000D03*
%TD*%
%TO.P,SW5,1,1*%
%TO.N,Net-(Connector1-Pin_6)*%
X129540000Y-55880000D03*
%TO.P,SW5,2,2*%
%TO.N,Net-(D5-A)*%
X135890000Y-53340000D03*
%TD*%
%TO.P,SW7,1,1*%
%TO.N,Net-(Connector1-Pin_6)*%
X129540000Y-109220000D03*
%TO.P,SW7,2,2*%
%TO.N,Net-(D7-A)*%
X135890000Y-106680000D03*
%TD*%
%TO.P,SW14,1,1*%
%TO.N,Net-(Connector1-Pin_2)*%
X180340000Y-81280000D03*
%TO.P,SW14,2,2*%
%TO.N,Net-(D14-A)*%
X186690000Y-78740000D03*
%TD*%
%TO.P,SW3,1,1*%
%TO.N,Net-(Connector1-Pin_8)*%
X104140000Y-109220000D03*
%TO.P,SW3,2,2*%
%TO.N,Net-(D3-A)*%
X110490000Y-106680000D03*
%TD*%
%TO.P,SW11,1,1*%
%TO.N,Net-(Connector1-Pin_4)*%
X154940000Y-109220000D03*
%TO.P,SW11,2,2*%
%TO.N,Net-(D11-A)*%
X161290000Y-106680000D03*
%TD*%
%TO.P,SW4,1,1*%
%TO.N,Net-(Connector1-Pin_8)*%
X104140000Y-134620000D03*
%TO.P,SW4,2,2*%
%TO.N,Net-(D4-A)*%
X110490000Y-132080000D03*
%TD*%
%TO.P,SW10,1,1*%
%TO.N,Net-(Connector1-Pin_4)*%
X154940000Y-81280000D03*
%TO.P,SW10,2,2*%
%TO.N,Net-(D10-A)*%
X161290000Y-78740000D03*
%TD*%
%TO.P,SW2,1,1*%
%TO.N,Net-(Connector1-Pin_8)*%
X104140000Y-81280000D03*
%TO.P,SW2,2,2*%
%TO.N,Net-(D2-A)*%
X110490000Y-78740000D03*
%TD*%
D15*
%TO.N,Net-(Connector1-Pin_8)*%
X120650000Y-39370000D02*
X136160000Y-39370000D01*
X136160000Y-39370000D02*
X138430000Y-37100000D01*
%TO.N,Net-(Connector1-Pin_6)*%
X129540000Y-55880000D02*
X139700000Y-55880000D01*
X139700000Y-55880000D02*
X140970000Y-54610000D01*
X140970000Y-54610000D02*
X140970000Y-37100000D01*
%TO.N,Net-(Connector1-Pin_4)*%
X154940000Y-55880000D02*
X146050000Y-55880000D01*
X146050000Y-55880000D02*
X144780000Y-54610000D01*
X144780000Y-54610000D02*
X144780000Y-38370000D01*
X144780000Y-38370000D02*
X143510000Y-37100000D01*
%TO.N,Net-(Connector1-Pin_2)*%
X180340000Y-55880000D02*
X172720000Y-55880000D01*
X172720000Y-55880000D02*
X171450000Y-54610000D01*
X171450000Y-54610000D02*
X171450000Y-40640000D01*
X171450000Y-40640000D02*
X170180000Y-39370000D01*
X170180000Y-39370000D02*
X148320000Y-39370000D01*
X148320000Y-39370000D02*
X146050000Y-37100000D01*
X180340000Y-55880000D02*
X180340000Y-134620000D01*
%TO.N,Net-(Connector1-Pin_4)*%
X154940000Y-55880000D02*
X154940000Y-134620000D01*
%TO.N,Net-(Connector1-Pin_8)*%
X104140000Y-55880000D02*
X116840000Y-55880000D01*
X119380000Y-40640000D02*
X120650000Y-39370000D01*
X116840000Y-55880000D02*
X119380000Y-53340000D01*
X119380000Y-53340000D02*
X119380000Y-40640000D01*
X104140000Y-81280000D02*
X104140000Y-134620000D01*
X104140000Y-55880000D02*
X104140000Y-81280000D01*
%TO.N,Net-(Connector1-Pin_6)*%
X129540000Y-55880000D02*
X129540000Y-134620000D01*
%TD*%
M02*
